<svg width="370" height="36" viewBox="0 0 370 36" fill="none" xmlns="http://www.w3.org/2000/svg">
<g clip-path="url(#clip0_0_4)">
<rect width="370" height="36" fill="black"/>
<path d="M99.1098 25.05C97.7898 31.38 93.0298 36 84.5498 36C73.8098 36 68.7598 28.39 68.7598 18.77C68.7598 9.15 74.0098 1.19 84.8898 1.19C93.9098 1.19 98.2698 6.44 99.1098 12.14H91.8098C91.0698 9.49 89.2598 6.89 84.6498 6.89C78.6198 6.89 76.3198 12.34 76.3198 18.53C76.3198 24.23 78.3298 30.26 84.8498 30.26C89.6498 30.26 91.1198 27.07 91.7598 25.06H99.1098V25.05Z" fill="white"/>
<path d="M136.46 18.47C136.46 27.9 130.82 36 119.84 36C108.86 36 103.66 28.29 103.66 18.57C103.66 8.85 109.79 1.19 120.28 1.19C130.18 1.19 136.46 8.11 136.46 18.47ZM111.21 18.42C111.21 25.05 114.1 30.06 120.08 30.06C126.6 30.06 128.9 24.61 128.9 18.57C128.9 12.14 126.25 7.13 119.98 7.13C113.71 7.13 111.2 11.84 111.2 18.42H111.21Z" fill="white"/>
<path d="M205.24 25.05C203.92 31.38 199.16 36 190.68 36C179.94 36 174.89 28.39 174.89 18.77C174.89 9.15 180.14 1.19 191.02 1.19C200.04 1.19 204.4 6.44 205.24 12.14H197.94C197.2 9.49 195.39 6.89 190.78 6.89C184.75 6.89 182.45 12.34 182.45 18.53C182.45 24.23 184.46 30.26 190.98 30.26C195.78 30.26 197.25 27.07 197.89 25.06H205.24V25.05Z" fill="white"/>
<path d="M211.46 1.67999H218.76V14.84H232.39V1.67999H239.69V35.51H232.39V20.88H218.76V35.51H211.46V1.67999Z" fill="white"/>
<path d="M254.5 7.66999H244.21V1.67999H272.06V7.66999H261.81V35.51H254.51V7.66999H254.5Z" fill="white"/>
<path d="M299.85 20.93H283.67V29.52H301.51L300.63 35.51H276.56V1.67999H300.53V7.66999H283.67V14.89H299.85V20.93Z" fill="white"/>
<path d="M335.54 25.05C334.22 31.38 329.46 36 320.98 36C310.24 36 305.19 28.39 305.19 18.77C305.19 9.15 310.44 1.19 321.32 1.19C330.34 1.19 334.7 6.44 335.54 12.14H328.24C327.5 9.49 325.69 6.89 321.08 6.89C315.05 6.89 312.75 12.34 312.75 18.53C312.75 24.23 314.76 30.26 321.28 30.26C326.08 30.26 327.55 27.07 328.19 25.06H335.54V25.05Z" fill="white"/>
<path d="M341.76 1.67999H349.06V14.84H362.69V1.67999H369.99V35.51H362.69V20.88H349.06V35.51H341.76V1.67999Z" fill="white"/>
<path d="M159.99 1.67999H150.82L139.35 35.51H146.56C148.47 29.37 154.31 10.27 155.14 6.92999H155.19C156.02 9.96999 161.91 28.34 164.31 35.51H172.01L159.99 1.67999Z" fill="white"/>
<path d="M56.6898 0H22.2598C12.3298 0 2.54982 8.06 0.419822 18C-1.72018 27.94 4.59982 36 14.5198 36H25.4098C26.8798 36 28.3298 34.81 28.6498 33.33L30.1698 26.27C30.4898 24.8 29.5498 23.6 28.0798 23.6H15.9698C13.2098 23.6 11.2598 21.47 11.7698 18.71C12.2998 15.85 15.0898 13.51 17.9298 13.51H36.9698C38.4398 13.51 39.3798 14.7 39.0598 16.18L35.3698 33.34C35.0498 34.81 35.9898 36.01 37.4598 36.01H46.2898C47.7598 36.01 49.2098 34.82 49.5298 33.34L53.2198 16.18C53.5398 14.71 54.9898 13.51 56.4598 13.51C57.9298 13.51 59.3798 12.32 59.6998 10.84L62.0298 0H56.6998L56.6898 0Z" fill="white"/>
</g>
<defs>
<clipPath id="clip0_0_4">
<rect width="370" height="36" fill="white"/>
</clipPath>
</defs>
</svg>
